<svg width="32" height="32" viewBox="0 0 32 32" fill="none" xmlns="http://www.w3.org/2000/svg">
<path fill-rule="evenodd" clip-rule="evenodd" d="M10.5611 6L13.8517 11.6992L17.1422 6H21.5484L19.3453 9.81556H25.3914L27.5945 6H32L20.986 25.0778H17.1704L13.8517 19.3303L12.4613 21.7391C10.6176 24.9327 6.53342 26.027 3.3398 24.1831C0.146173 22.3392 -0.948132 18.2555 0.895546 15.0619L1.722 13.6311H6.12745L4.20059 16.9697H4.19753C3.40771 18.3394 3.87779 20.0899 5.24681 20.8805C6.61584 21.6711 8.36718 21.2022 9.15776 19.8331L9.157 19.8313L11.6493 15.5148L8.35879 9.81556H2.20275L0.000417435 6H10.5611ZM17.1422 13.6311L16.0548 15.5148L19.0782 20.751L23.1883 13.6311H17.1422Z" fill="black"/>
</svg>
