<svg width="48" height="48" viewBox="0 0 48 48" fill="none" xmlns="http://www.w3.org/2000/svg">
<path d="M9.89997 28.8599C8.91 31.3499 7.35003 33.8099 5.26501 36.18C4.60501 36.93 4.51501 38.0099 5.055 38.8499C5.47504 39.5099 6.16498 39.8699 6.91498 39.8699C7.125 39.8699 7.33503 39.855 7.54504 39.7799C11.955 38.4899 22.26 33.9149 22.545 19.2449C22.65 13.59 18.51 8.72998 13.125 8.17498C10.14 7.87496 7.17004 8.8499 4.965 10.8299C2.76004 12.8249 1.5 15.675 1.5 18.6449C1.5 23.5949 5.01004 27.93 9.89997 28.8599Z" fill="#171717"/>
<path d="M37.065 8.17498C34.095 7.87496 31.125 8.8499 28.92 10.8299C26.715 12.8249 25.455 15.675 25.455 18.6449C25.455 23.5949 28.965 27.9299 33.855 28.8599C32.865 31.3499 31.305 33.8099 29.22 36.1799C28.56 36.9299 28.47 38.0099 29.01 38.8499C29.43 39.5099 30.12 39.8699 30.87 39.8699C31.08 39.8699 31.29 39.855 31.5 39.7799C35.91 38.4899 46.215 33.9149 46.5 19.2449V19.035C46.5 13.4699 42.405 8.72998 37.065 8.17498Z" fill="#171717"/>
</svg>
